<svg xmlns="http://www.w3.org/2000/svg" version="1.1" xmlns:xlink="http://www.w3.org/1999/xlink" xmlns:svgjs="http://svgjs.dev/svgjs" width="1000" height="1000" viewBox="0 0 1000 1000"><rect width="1000" height="1000" fill="#ffffff"></rect><g transform="matrix(0.7,0,0,0.7,149.57575757575756,282.1265587044535)"><svg viewBox="0 0 396 247" data-background-color="#282634" preserveAspectRatio="xMidYMid meet" height="623" width="1000" xmlns="http://www.w3.org/2000/svg" xmlns:xlink="http://www.w3.org/1999/xlink"><g id="tight-bounds" transform="matrix(1,0,0,1,0.2400000000000091,-0.09999999999999432)"><svg viewBox="0 0 395.52 247.2" height="247.2" width="395.52"><g><svg></svg></g><g><svg viewBox="0 0 395.52 247.2" height="247.2" width="395.52"><g transform="matrix(1,0,0,1,75.54432000000001,101.89063578947368)"><svg viewBox="0 0 244.43135999999996 43.418728421052634" height="43.418728421052634" width="244.43135999999996"><g><svg viewBox="0 0 244.43135999999996 43.418728421052634" height="43.418728421052634" width="244.43135999999996"><g><svg viewBox="0 0 244.43135999999996 43.418728421052634" height="43.418728421052634" width="244.43135999999996"><g><svg viewBox="0 0 244.43135999999996 43.418728421052634" height="43.418728421052634" width="244.43135999999996"><g><svg viewBox="0 0 244.43135999999996 43.418728421052634" height="43.418728421052634" width="244.43135999999996"><g><svg viewBox="0 0 244.43135999999996 43.418728421052634" height="43.418728421052634" width="244.43135999999996"><g transform="matrix(1,0,0,1,0,0)"><svg width="244.43135999999996" viewBox="1.2300000190734863 -32.43000030517578 186.1800079345703 33.08000183105469" height="43.418728421052634" data-palette-color="#ff4057"><path d="M6.23 0L1.23 0 12.13-31.85 18-31.85 28.58 0 23.58 0 21.1-7.6 8.8-7.6 6.23 0ZM14.98-26.13L10-11.25 19.93-11.25 14.98-26.13ZM45.27 0.65L45.27 0.65Q42.02 0.65 39.3-0.51 36.57-1.68 34.91-3.98 33.25-6.28 33.17-9.73L33.17-9.73 37.82-9.73Q37.82-7.65 38.84-6.33 39.85-5 41.52-4.36 43.2-3.73 45.22-3.73L45.22-3.73Q47.27-3.73 48.85-4.35 50.42-4.98 51.28-6.03 52.15-7.08 52.15-8.43L52.15-8.43Q52.15-10.25 51.02-11.36 49.9-12.48 47.6-13.25L47.6-13.25 41.67-15.45Q37.85-16.88 35.85-18.74 33.85-20.6 33.85-23.93L33.85-23.93Q33.85-27.7 36.8-30.06 39.75-32.43 45.1-32.43L45.1-32.43Q50.17-32.43 52.98-30.08 55.8-27.73 56.2-23.68L56.2-23.68 51.52-23.68Q51.17-25.73 49.61-26.93 48.05-28.13 45.1-28.13L45.1-28.13Q42.25-28.13 40.65-26.89 39.05-25.65 39.05-23.78L39.05-23.78Q39.05-22.23 40.06-21.3 41.07-20.38 43.22-19.63L43.22-19.63 49.97-17.15Q53.45-15.93 55.4-13.85 57.35-11.78 57.35-8.58L57.35-8.58Q57.35-5.88 55.95-3.8 54.55-1.73 51.85-0.54 49.15 0.65 45.27 0.65ZM71.57 0L61.34-31.85 66.67-31.85 74.69-4.2 73.39-4.2 81.5-29.05 84.72-29.05 92.87-4.48 91.67-4.48 100.55-31.85 105.9-31.85 94.77 0 89.77 0 82.89-20.4 83.57-20.4 76.55 0 71.57 0ZM110.99 0L105.99 0 116.89-31.85 122.77-31.85 133.34 0 128.34 0 125.87-7.6 113.57-7.6 110.99 0ZM119.74-26.13L114.77-11.25 124.69-11.25 119.74-26.13ZM143.97-27.75L132.74-27.75 132.74-31.85 157.84-31.85 157.84-27.75 146.59-27.75 147.66-28.85 147.66 0 142.91 0 142.91-28.85 143.97-27.75ZM162.99 0L162.99-31.85 167.74-31.85 167.74-18.13 182.69-18.13 182.69-31.85 187.41-31.85 187.41 0 182.69 0 182.69-14 167.74-14 167.74 0 162.99 0Z" opacity="1" transform="matrix(1,0,0,1,0,0)" fill="#000000" class="undefined-text-0" data-fill-palette-color="primary" id="text-0"></path></svg></g></svg></g></svg></g></svg></g><g></g></svg></g></svg></g></svg></g><g><path d="M115.868 91.641A122.216 122.216 0 0 1 279.652 91.641L275.736 91.641A118.3 118.3 0 0 0 119.784 91.641L115.868 91.641M115.868 155.559A122.216 122.216 0 0 0 279.652 155.559L275.736 155.559A118.3 118.3 0 0 1 119.784 155.559L115.868 155.559" fill="#ff4057" stroke="transparent" data-fill-palette-color="tertiary"></path></g></svg></g><defs></defs></svg><rect width="395.52" height="247.2" fill="none" stroke="none" visibility="hidden"></rect></g></svg></g></svg>